<svg xmlns="http://www.w3.org/2000/svg" viewBox="0 0 64 64"><title>15_File</title><g id="_15_File" data-name="15_File"><path d="M42.6667,0H21.3333A13.3491,13.3491,0,0,0,8,13.3333V50.6667A13.3491,13.3491,0,0,0,21.3333,64H42.6667A13.3491,13.3491,0,0,0,56,50.6667V13.3333A13.3491,13.3491,0,0,0,42.6667,0Zm8,50.6667a8.0088,8.0088,0,0,1-8,8H21.3333a8.0088,8.0088,0,0,1-8-8V13.3333a8.0088,8.0088,0,0,1,8-8H42.6667a8.0088,8.0088,0,0,1,8,8Z"/><path d="M24,29.3333h5.3333A5.3386,5.3386,0,0,0,34.6667,24V18.6667a5.3387,5.3387,0,0,0-5.3334-5.3334H24a5.3386,5.3386,0,0,0-5.3333,5.3334V24A5.3386,5.3386,0,0,0,24,29.3333Zm0-10.6666h5.3333L29.3372,24H24Z"/><path d="M42.6667,34.6667H21.3333a2.6667,2.6667,0,0,0,0,5.3333H42.6667a2.6667,2.6667,0,0,0,0-5.3333Z"/><path d="M42.6667,45.3333H21.3333a2.6667,2.6667,0,0,0,0,5.3334H42.6667a2.6667,2.6667,0,0,0,0-5.3334Z"/></g></svg>