<svg xmlns="http://www.w3.org/2000/svg" viewBox="0 0 64 64"><title>89_Avatar</title><g id="_89_Avatar" data-name="89_Avatar"><path d="M32,2.6667A29.3333,29.3333,0,1,0,61.3333,32,29.3664,29.3664,0,0,0,32,2.6667ZM32,56A24,24,0,1,1,56,32,24.0262,24.0262,0,0,1,32,56Z"/><path d="M40.5793,39.4536a13.3336,13.3336,0,1,0-17.1586,0,18.4084,18.4084,0,0,0-5.3113,4.1115,2.6676,2.6676,0,0,0,3.9948,3.5365,13.2579,13.2579,0,0,1,19.7916,0,2.6676,2.6676,0,0,0,3.9948-3.5365A18.4084,18.4084,0,0,0,40.5793,39.4536ZM24,29.3333a8,8,0,1,1,8,8A8.0088,8.0088,0,0,1,24,29.3333Z"/></g></svg>