<svg xmlns="http://www.w3.org/2000/svg" viewBox="0 0 64 64"><title>94_Newspaper</title><g id="_94_Newspaper" data-name="94_Newspaper"><path d="M50.6667,2.6667h-16A13.349,13.349,0,0,0,21.3333,16V34.6667h-8a13.3333,13.3333,0,0,0,0,26.6666H50.6667A13.349,13.349,0,0,0,64,48V16A13.349,13.349,0,0,0,50.6667,2.6667ZM21.3333,48a8,8,0,1,1-8-8h8Zm37.3334,0a8.0088,8.0088,0,0,1-8,8H23.9935a13.2646,13.2646,0,0,0,2.6732-8V16a8.0087,8.0087,0,0,1,8-8h16a8.0088,8.0088,0,0,1,8,8Z"/><path d="M34.6667,29.3333H40A5.3394,5.3394,0,0,0,45.3333,24V18.6667A5.34,5.34,0,0,0,40,13.3333H34.6667a5.34,5.34,0,0,0-5.3334,5.3334V24A5.34,5.34,0,0,0,34.6667,29.3333Zm0-10.6666H40L40.0039,24H34.6667Z"/><path d="M53.3333,34.6667H32A2.6667,2.6667,0,1,0,32,40H53.3333a2.6667,2.6667,0,1,0,0-5.3333Z"/><path d="M53.3333,45.3333H32a2.6667,2.6667,0,0,0,0,5.3334H53.3333a2.6667,2.6667,0,1,0,0-5.3334Z"/></g></svg>