<svg xmlns="http://www.w3.org/2000/svg" viewBox="0 0 64 64"><title>1_Bar Chart</title><g id="_1_Bar_Chart" data-name="1_Bar Chart"><path d="M61.3334,53.3333v-40a8.0088,8.0088,0,0,0-8-8H42.6667a8.0088,8.0088,0,0,0-8,8v40H29.3334V26.6667a8.0088,8.0088,0,0,0-8-8H10.6667a8.0087,8.0087,0,0,0-8,8V53.3333a2.6667,2.6667,0,1,0,0,5.3334H61.3334a2.6667,2.6667,0,0,0,0-5.3334ZM24,53.3333H8V26.6667A2.67,2.67,0,0,1,10.6667,24H21.3334A2.67,2.67,0,0,1,24,26.6667Zm32,0H40v-40a2.67,2.67,0,0,1,2.6667-2.6666H53.3334A2.67,2.67,0,0,1,56,13.3333Z"/><path d="M48,16a2.6667,2.6667,0,0,0-2.6666,2.6667V45.3333a2.6667,2.6667,0,1,0,5.3333,0V18.6667A2.6668,2.6668,0,0,0,48,16Z"/><path d="M16,29.3333A2.6667,2.6667,0,0,0,13.3334,32V45.3333a2.6667,2.6667,0,1,0,5.3333,0V32A2.6668,2.6668,0,0,0,16,29.3333Z"/></g></svg>