<svg xmlns="http://www.w3.org/2000/svg" viewBox="0 0 64 64"><title>31_Notification</title><g id="_31_Notification" data-name="31_Notification"><path d="M53.5873,34.2747A8.8316,8.8316,0,0,1,50.6667,28.09V18.6666a18.6667,18.6667,0,0,0-37.3333,0V28.09a8.832,8.832,0,0,1-2.9206,6.1849A7.9337,7.9337,0,0,0,8,40v5.3333a8.0088,8.0088,0,0,0,8,8h2.9362a13.3331,13.3331,0,0,0,26.1276,0H48a8.0087,8.0087,0,0,0,8-8V40A7.934,7.934,0,0,0,53.5873,34.2747ZM32,58.6666a7.9865,7.9865,0,0,1-7.5084-5.3333H39.5087A7.9869,7.9869,0,0,1,32,58.6666ZM50.6667,45.3333A2.67,2.67,0,0,1,48,48H16a2.67,2.67,0,0,1-2.6666-2.6667V40a2.6423,2.6423,0,0,1,.8033-1.9076,14.0732,14.0732,0,0,0,4.53-10.0026V18.6666a13.3334,13.3334,0,0,1,26.6667,0V28.09a14.0731,14.0731,0,0,0,4.53,10.0026A2.6424,2.6424,0,0,1,50.6667,40Z"/><path d="M40,37.3333H24a2.6667,2.6667,0,0,0,0,5.3333H40a2.6667,2.6667,0,1,0,0-5.3333Z"/></g></svg>