<svg xmlns="http://www.w3.org/2000/svg" viewBox="0 0 64 64"><title>32_User</title><g id="_32_User" data-name="32_User"><path d="M32,32A16,16,0,1,0,16,16,16.0175,16.0175,0,0,0,32,32ZM32,5.3333A10.6667,10.6667,0,1,1,21.3333,16,10.6789,10.6789,0,0,1,32,5.3333Z"/><path d="M44.04,32a10.6673,10.6673,0,0,0-4.41,1.03,18.6882,18.6882,0,0,1-15.2617,0A10.6575,10.6575,0,0,0,19.96,32,11.9726,11.9726,0,0,0,8,43.96v6.707A13.3491,13.3491,0,0,0,21.3333,64H42.6666A13.3491,13.3491,0,0,0,56,50.6666V43.96A11.9726,11.9726,0,0,0,44.04,32Zm6.6263,18.6666a8.0087,8.0087,0,0,1-8,8H21.3333a8.0088,8.0088,0,0,1-8-8V43.96A6.634,6.634,0,0,1,19.96,37.3333a5.3548,5.3548,0,0,1,2.2018.5508,24.0367,24.0367,0,0,0,19.6758,0,5.3654,5.3654,0,0,1,2.2031-.5508A6.6339,6.6339,0,0,1,50.6666,43.96Z"/></g></svg>